<?xml version="1.0" standalone="no"?>
<!DOCTYPE svg PUBLIC "-//W3C//DTD SVG 20010904//EN"
 "http://www.w3.org/TR/2001/REC-SVG-20010904/DTD/svg10.dtd">
<svg version="1.0" xmlns="http://www.w3.org/2000/svg"
 width="267.000000pt" height="349.000000pt" viewBox="0 0 267.000000 349.000000"
 preserveAspectRatio="xMidYMid meet">
<metadata>
Created by potrace 1.15, written by Peter Selinger 2001-2017
</metadata>
<g transform="translate(0.000000,349.000000) scale(0.100000,-0.100000)"
fill="#000000" stroke="none">
<path d="M998 2670 c-68 -20 -128 -98 -128 -167 0 -69 50 -148 109 -173 18 -7
213 -10 637 -8 l611 3 35 27 c86 66 95 202 16 275 -57 53 -52 53 -675 52 -318
0 -590 -4 -605 -9z"/>
<path d="M1008 1250 c-53 -16 -97 -51 -117 -94 -35 -72 -25 -144 27 -199 56
-59 29 -57 681 -57 399 0 609 4 628 11 67 25 106 91 105 175 -2 77 -54 143
-130 164 -45 12 -1153 12 -1194 0z"/>
</g>
</svg>
